<svg xmlns="http://www.w3.org/2000/svg" xmlns:xlink="http://www.w3.org/1999/xlink" width="500" zoomAndPan="magnify" viewBox="0 0 375 374.999991" height="500" preserveAspectRatio="xMidYMid meet" version="1.0"><defs><g/><clipPath id="a8023b7bb2"><path d="M 154 119 L 221 119 L 221 128 L 154 128 Z M 154 119 " clip-rule="nonzero"/></clipPath><clipPath id="db61a42e01"><path d="M 153.90625 121.9375 L 220.492188 117.265625 L 221.070312 125.496094 L 154.484375 130.164062 Z M 153.90625 121.9375 " clip-rule="nonzero"/></clipPath><clipPath id="83101b5c0a"><path d="M 153.90625 121.9375 L 220.492188 117.265625 L 221.070312 125.496094 L 154.484375 130.164062 Z M 153.90625 121.9375 " clip-rule="nonzero"/></clipPath><clipPath id="603174f75e"><path d="M 153.625 86.414062 L 215.125 86.414062 L 215.125 147.914062 L 153.625 147.914062 Z M 153.625 86.414062 " clip-rule="nonzero"/></clipPath></defs><rect x="-37.5" width="450" fill="#ffffff" y="-37.499999" height="449.999989" fill-opacity="1"/><rect x="-37.5" width="450" fill="#ffffff" y="-37.499999" height="449.999989" fill-opacity="1"/><rect x="-37.5" width="450" fill="#faf7f5" y="-37.499999" height="449.999989" fill-opacity="1"/><g clip-path="url(#a8023b7bb2)"><g clip-path="url(#db61a42e01)"><g clip-path="url(#83101b5c0a)"><path fill="#faf7f5" d="M 220.605469 119.257812 C 220.214844 119.644531 219.859375 120.082031 219.429688 120.414062 C 217.78125 121.714844 216.136719 123.003906 214.472656 124.25 C 213.507812 124.980469 212.46875 124.84375 211.441406 124.324219 C 210.488281 123.855469 209.570312 123.324219 208.566406 122.96875 C 207.746094 122.667969 206.851562 122.496094 205.992188 122.445312 C 205.121094 122.398438 204.308594 122.8125 203.535156 123.226562 C 201.496094 124.277344 199.472656 125.355469 197.417969 126.328125 C 195.851562 127.070312 194.175781 127.382812 192.453125 127.421875 C 190.53125 127.457031 188.757812 126.921875 187.214844 125.707031 C 186.296875 124.984375 185.375 124.25 184.515625 123.457031 C 182.488281 121.597656 180.128906 121.460938 177.863281 122.722656 C 176.65625 123.402344 175.539062 124.25 174.359375 124.996094 C 173.03125 125.847656 171.632812 126.523438 170.027344 126.648438 C 168.710938 126.753906 167.542969 126.3125 166.429688 125.660156 C 165.214844 124.945312 164.023438 124.175781 162.800781 123.488281 C 161.492188 122.742188 160.066406 122.425781 158.578125 122.753906 C 157.40625 123 156.40625 123.621094 155.574219 124.519531 C 155.175781 124.949219 154.835938 125.425781 154.417969 125.9375 C 154.1875 125.484375 154.351562 125.15625 154.503906 124.871094 C 155.234375 123.496094 156.433594 122.667969 157.828125 122.15625 C 159.550781 121.539062 161.25 121.75 162.871094 122.5625 C 164.210938 123.226562 165.496094 124.019531 166.804688 124.738281 C 167.972656 125.375 169.214844 125.753906 170.546875 125.496094 C 171.839844 125.242188 173.03125 124.714844 174.171875 124.042969 C 175.429688 123.292969 176.65625 122.476562 177.976562 121.859375 C 180.359375 120.757812 182.726562 120.960938 185.023438 122.304688 C 186.335938 123.066406 187.585938 123.957031 189.101562 124.222656 C 190.265625 124.429688 191.414062 124.40625 192.59375 124.269531 C 195.644531 123.917969 198.335938 122.472656 201.195312 121.527344 C 202.449219 121.109375 203.671875 120.597656 205.027344 120.527344 C 206.507812 120.453125 207.835938 120.925781 209.136719 121.5625 C 210.164062 122.070312 211.152344 122.664062 212.179688 123.210938 C 212.886719 123.589844 213.609375 123.566406 214.285156 123.132812 C 215.882812 122.097656 217.480469 121.046875 219.078125 120 C 219.539062 119.703125 220 119.394531 220.472656 119.101562 C 220.515625 119.140625 220.558594 119.191406 220.605469 119.257812 Z M 220.605469 119.257812 " fill-opacity="1" fill-rule="nonzero"/></g></g></g><g clip-path="url(#603174f75e)"><path fill="#000000" d="M 213.203125 97.945312 L 201.671875 97.945312 L 201.671875 92.179688 C 201.671875 89 199.085938 86.414062 195.90625 86.414062 L 172.84375 86.414062 C 169.667969 86.414062 167.078125 89 167.078125 92.179688 L 167.078125 97.945312 L 155.546875 97.945312 C 154.488281 97.945312 153.625 98.804688 153.625 99.867188 L 153.625 145.992188 C 153.625 147.054688 154.488281 147.914062 155.546875 147.914062 L 213.203125 147.914062 C 214.265625 147.914062 215.125 147.054688 215.125 145.992188 L 215.125 99.867188 C 215.125 98.804688 214.265625 97.945312 213.203125 97.945312 Z M 170.921875 92.179688 C 170.921875 91.117188 171.785156 90.257812 172.84375 90.257812 L 195.90625 90.257812 C 196.96875 90.257812 197.828125 91.117188 197.828125 92.179688 L 197.828125 97.945312 L 170.921875 97.945312 Z M 157.46875 101.789062 L 211.28125 101.789062 L 211.28125 111.398438 C 211.28125 114.578125 208.695312 117.164062 205.515625 117.164062 L 190.140625 117.164062 L 190.140625 115.242188 C 190.140625 112.0625 187.554688 109.476562 184.375 109.476562 C 181.199219 109.476562 178.609375 112.0625 178.609375 115.242188 L 178.609375 117.164062 L 163.234375 117.164062 C 160.058594 117.164062 157.46875 114.578125 157.46875 111.398438 Z M 186.296875 117.164062 L 182.453125 117.164062 L 182.453125 115.242188 C 182.453125 114.179688 183.316406 113.320312 184.375 113.320312 C 185.433594 113.320312 186.296875 114.179688 186.296875 115.242188 Z M 182.453125 121.007812 L 186.296875 121.007812 L 186.296875 122.929688 C 186.296875 123.992188 185.433594 124.851562 184.375 124.851562 C 183.316406 124.851562 182.453125 123.992188 182.453125 122.929688 Z M 157.46875 144.070312 L 157.46875 119.035156 C 159.082031 120.257812 161.0625 121.007812 163.234375 121.007812 L 178.609375 121.007812 L 178.609375 122.929688 C 178.609375 126.109375 181.199219 128.695312 184.375 128.695312 C 187.554688 128.695312 190.140625 126.109375 190.140625 122.929688 L 190.140625 121.007812 L 205.515625 121.007812 C 207.6875 121.007812 209.671875 120.257812 211.28125 119.035156 L 211.28125 144.070312 Z M 157.46875 144.070312 " fill-opacity="1" fill-rule="nonzero"/></g><path fill="#000000" d="M 187.5 375 C 83.910156 375 0 290.507812 0 187.5 C 0 84.492188 83.910156 0 187.5 0 C 291.089844 0 375 83.910156 375 187.5 C 375 291.089844 290.507812 375 187.5 375 Z M 187.5 11.574219 C 90.277344 11.574219 11.574219 90.277344 11.574219 187.5 C 11.574219 284.722656 90.277344 363.425781 187.5 363.425781 C 284.722656 363.425781 363.425781 284.722656 363.425781 187.5 C 363.425781 90.277344 284.144531 11.574219 187.5 11.574219 Z M 187.5 11.574219 " fill-opacity="1" fill-rule="nonzero"/><g fill="#000000" fill-opacity="1"><g transform="translate(43.359377, 203.401628)"><g><path d="M 20.976562 -28.359375 C 14.765625 -32.914062 8.417969 -38.710938 8.417969 -41.054688 C 8.417969 -42.710938 9.730469 -43.125 11.730469 -43.125 C 18.835938 -43.125 24.148438 -38.296875 28.773438 -34.570312 L 32.636719 -45.125 C 30.566406 -46.988281 26.425781 -49.128906 18.90625 -49.128906 C 7.589844 -49.128906 2 -42.78125 2 -36.640625 C 2 -30.703125 6.898438 -26.839844 13.800781 -21.460938 C 20.90625 -15.730469 27.875 -9.9375 27.875 -6.832031 C 27.875 -5.449219 26.703125 -4.621094 23.941406 -4.621094 C 16.078125 -4.621094 11.179688 -9.246094 8.210938 -14.007812 L 0.34375 -5.589844 C 4.414062 -1.035156 9.589844 0.757812 17.734375 0.757812 C 28.429688 0.757812 35.605469 -6.140625 35.605469 -12.214844 C 35.605469 -18.769531 27.808594 -23.320312 20.976562 -28.359375 Z M 20.976562 -28.359375 "/></g></g></g><g fill="#000000" fill-opacity="1"><g transform="translate(79.584377, 203.401628)"><g><path d="M 40.640625 0.0703125 L 53.0625 0.0703125 C 50.714844 -4.484375 50.578125 -7.105469 50.578125 -7.933594 L 50.507812 -26.632812 C 50.507812 -30.015625 50.300781 -35.605469 42.574219 -35.605469 C 37.261719 -35.605469 31.671875 -29.878906 30.84375 -28.980469 C 30.566406 -32.152344 29.050781 -35.605469 23.113281 -35.605469 C 18.007812 -35.605469 12.695312 -30.566406 11.386719 -29.1875 L 11.386719 -35.605469 C 11.386719 -35.605469 0.964844 -30.84375 0.964844 -30.773438 C 3.519531 -28.429688 3.519531 -24.632812 3.519531 -24.632812 C 3.519531 -19.042969 3.519531 -13.453125 3.519531 -7.933594 C 3.519531 -6.96875 3.449219 -2.96875 0.964844 0.0703125 L 14.214844 0.0703125 C 11.660156 -4.003906 11.59375 -7.726562 11.59375 -8.074219 L 11.453125 -27.253906 C 13.660156 -28.152344 15.59375 -28.566406 17.042969 -28.566406 C 23.597656 -28.566406 23.597656 -23.113281 23.597656 -23.113281 L 23.597656 -8.074219 C 23.597656 -7.867188 23.460938 -6.003906 21.046875 0.0703125 L 33.535156 0.0703125 C 31.1875 -4.484375 30.980469 -7.105469 30.980469 -7.933594 L 30.910156 -27.1875 C 32.914062 -28.015625 34.914062 -28.359375 36.984375 -28.359375 C 43.054688 -28.359375 43.125 -23.113281 43.125 -21.664062 L 43.125 -8.074219 C 43.125 -7.867188 43.054688 -6.003906 40.640625 0.0703125 Z M 40.640625 0.0703125 "/></g></g><g transform="translate(133.542376, 203.401628)"><g><path d="M 29.394531 -9.039062 C 29.394531 -14.558594 29.394531 -19.113281 29.394531 -24.632812 C 29.394531 -25.945312 29.257812 -31.050781 19.734375 -34.777344 C 14.628906 -36.777344 8.902344 -36.226562 4.96875 -32.359375 L 8.347656 -23.941406 C 10.28125 -27.945312 14.28125 -31.324219 18.421875 -31.324219 C 20.5625 -31.324219 21.046875 -25.738281 20.90625 -24.21875 C 16.351562 -22.011719 8.625 -18.148438 2.621094 -15.109375 C 1.105469 -14.28125 0.484375 -12.902344 0.484375 -11.453125 C 0.484375 -6.554688 7.105469 0.484375 11.316406 0.484375 C 15.109375 0.484375 19.941406 -4.347656 21.320312 -5.726562 L 21.320312 -4.554688 C 21.320312 -0.621094 24.355469 0.0703125 24.355469 0.0703125 L 31.878906 -3.105469 C 29.464844 -5.035156 29.394531 -8.417969 29.394531 -9.039062 Z M 15.316406 -7.039062 C 14.28125 -7.039062 13.316406 -7.105469 12.421875 -7.3125 C 10.765625 -7.660156 9.453125 -9.730469 9.453125 -11.867188 C 9.453125 -13.453125 10.210938 -15.109375 12.074219 -16.285156 C 17.664062 -19.734375 19.941406 -21.113281 20.976562 -21.734375 L 21.320312 -7.933594 C 20.011719 -7.382812 17.59375 -7.039062 15.316406 -7.039062 Z M 15.316406 -7.039062 "/></g></g></g><g fill="#000000" fill-opacity="1"><g transform="translate(166.179376, 203.401628)"><g><path d="M 22.492188 -35.671875 C 17.113281 -35.671875 12.902344 -31.257812 11.453125 -29.601562 L 11.453125 -35.8125 L 0.898438 -30.980469 C 3.3125 -28.980469 3.449219 -24.839844 3.449219 -24.839844 L 3.449219 -7.933594 C 3.449219 -7.039062 3.3125 -2.96875 0.898438 0 L 14.144531 0 C 11.59375 -4.070312 11.523438 -7.796875 11.523438 -8.140625 L 11.453125 -27.324219 C 13.109375 -28.015625 14.558594 -28.359375 15.730469 -28.359375 C 20.011719 -28.359375 21.664062 -24.703125 21.664062 -24.703125 L 28.429688 -33.121094 C 28.429688 -33.121094 26.980469 -35.671875 22.492188 -35.671875 Z M 22.492188 -35.671875 "/></g></g></g><g fill="#000000" fill-opacity="1"><g transform="translate(194.331382, 203.401628)"><g><path d="M 12.074219 -7.726562 C 12.074219 -8.761719 12.074219 -30.84375 12.074219 -30.84375 L 18.835938 -30.84375 L 20.148438 -34.292969 L 11.9375 -34.292969 L 11.9375 -42.433594 L 0.691406 -30.84375 L 4.003906 -30.84375 C 4.003906 -30.84375 3.242188 -11.039062 3.175781 -8.003906 C 3.105469 -4.898438 5.382812 1.035156 12.488281 1.035156 C 22.011719 1.035156 24.703125 -4.484375 24.703125 -4.484375 C 22.839844 -3.726562 12.074219 -2.207031 12.074219 -7.726562 Z M 12.074219 -7.726562 "/></g></g><g transform="translate(218.895382, 203.401628)"><g><path d="M 29.601562 -4.554688 C 17.25 -4.554688 12.902344 -12.835938 10.417969 -22.078125 C 9.175781 -26.566406 8.554688 -30.84375 8.554688 -34.222656 C 8.417969 -39.535156 9.9375 -42.160156 12.972656 -42.160156 C 22.699219 -42.160156 27.046875 -39.121094 29.671875 -34.292969 L 37.054688 -43.402344 C 33.328125 -47.402344 28.015625 -49.128906 22.21875 -49.128906 C 10.625 -49.128906 1.3125 -42.503906 1.3125 -24.082031 C 1.3125 -5.726562 10.625 0.757812 22.21875 0.757812 C 28.152344 0.757812 33.535156 -0.964844 37.328125 -5.035156 C 34.777344 -4.898438 32.152344 -4.554688 29.601562 -4.554688 Z M 29.601562 -4.554688 "/></g></g></g><g fill="#000000" fill-opacity="1"><g transform="translate(256.155384, 203.401628)"><g><path d="M 7.105469 -38.296875 L 13.386719 -45.125 C 13.386719 -45.125 9.589844 -47.058594 7.246094 -51.472656 L 0.757812 -45.195312 C 0.757812 -45.195312 2.828125 -40.710938 7.105469 -38.296875 Z M 14.214844 0.0703125 C 11.660156 -4.003906 11.59375 -7.726562 11.59375 -8.074219 L 11.523438 -35.257812 L 0.898438 -30.429688 C 3.519531 -28.289062 3.519531 -24.289062 3.519531 -24.289062 L 3.519531 -7.867188 C 3.519531 -6.898438 3.382812 -2.898438 0.898438 0.0703125 Z M 14.214844 0.0703125 "/></g></g></g><g fill="#000000" fill-opacity="1"><g transform="translate(271.26639, 203.401628)"><g><path d="M 12.074219 -7.726562 C 12.074219 -8.761719 12.074219 -30.84375 12.074219 -30.84375 L 18.835938 -30.84375 L 20.148438 -34.292969 L 11.9375 -34.292969 L 11.9375 -42.433594 L 0.691406 -30.84375 L 4.003906 -30.84375 C 4.003906 -30.84375 3.242188 -11.039062 3.175781 -8.003906 C 3.105469 -4.898438 5.382812 1.035156 12.488281 1.035156 C 22.011719 1.035156 24.703125 -4.484375 24.703125 -4.484375 C 22.839844 -3.726562 12.074219 -2.207031 12.074219 -7.726562 Z M 12.074219 -7.726562 "/></g></g></g><g fill="#000000" fill-opacity="1"><g transform="translate(295.830399, 203.401628)"><g><path d="M 23.734375 -34.292969 C 26.011719 -31.53125 27.738281 -30.085938 26.703125 -26.566406 L 20.148438 -8.625 C 20.148438 -8.625 15.042969 -24.703125 14.144531 -27.53125 C 13.246094 -30.359375 13.453125 -32.222656 15.664062 -34.292969 L -0.484375 -34.292969 C 1.726562 -32.015625 3.519531 -29.050781 4.828125 -25.53125 C 6.070312 -22.078125 14.074219 -0.0703125 14.074219 -0.0703125 C 14.074219 1.933594 12.214844 9.589844 7.726562 9.589844 C 4.347656 9.589844 2.554688 4.210938 2.554688 4.210938 L -4.691406 11.179688 C -4.691406 11.179688 -2.691406 13.59375 3.382812 13.59375 C 9.382812 13.59375 16.699219 7.867188 19.941406 0.0703125 C 23.113281 -7.660156 30.980469 -26.632812 30.980469 -26.632812 C 32.429688 -30.222656 34.085938 -32.152344 36.226562 -34.292969 Z M 23.734375 -34.292969 "/></g></g></g><g fill="#000000" fill-opacity="1"><g transform="translate(150.306597, 246.631301)"><g><path d="M 17.53125 -15.308594 C 18.675781 -14.363281 18.785156 -13.96875 18.324219 -12.230469 C 17.90625 -10.667969 15.773438 -4.089844 15.773438 -4.089844 C 15.773438 -4.089844 14.1875 -9.523438 13.332031 -11.546875 C 12.605469 -13.308594 11.8125 -13.925781 10.601562 -13.859375 L 7.566406 -4.246094 C 7.566406 -4.246094 5.476562 -10.953125 4.949219 -12.449219 C 4.488281 -13.726562 4.597656 -14.320312 5.257812 -15.308594 L -0.285156 -15.308594 C 0.460938 -14.648438 1.078125 -13.683594 1.363281 -12.890625 C 1.648438 -12.097656 5.324219 -1.761719 5.519531 -0.878906 C 5.632812 -0.59375 5.675781 -0.285156 5.652344 0 L 7.675781 0 L 11.109375 -10.074219 L 14.34375 0 L 16.035156 0 C 16.035156 0 19.6875 -11.128906 20.039062 -12.273438 C 20.480469 -13.683594 21.316406 -14.9375 21.800781 -15.308594 Z M 17.53125 -15.308594 "/></g></g></g><g fill="#000000" fill-opacity="1"><g transform="translate(176.10878, 246.631301)"><g><path d="M 7.082031 -15.664062 C 3.386719 -15.664062 0.417969 -13.550781 0.417969 -7.675781 C 0.417969 -1.824219 3.386719 0.242188 7.082031 0.242188 C 10.777344 0.242188 13.769531 -1.824219 13.769531 -7.675781 C 13.769531 -13.460938 10.777344 -15.664062 7.082031 -15.664062 Z M 11.21875 -3.894531 C 11.21875 -2.484375 10.777344 -1.453125 9.4375 -1.453125 C 5.5 -1.453125 4.113281 -4.089844 3.320312 -7.039062 C 2.925781 -8.492188 2.726562 -9.832031 2.726562 -10.933594 C 2.683594 -12.605469 3.167969 -13.441406 4.136719 -13.441406 C 9.0625 -13.441406 10.074219 -11.308594 10.933594 -8.027344 C 11.285156 -6.773438 11.21875 -5.039062 11.21875 -3.894531 Z M 11.21875 -3.894531 "/></g></g></g><g fill="#000000" fill-opacity="1"><g transform="translate(194.564268, 246.631301)"><g><path d="M 7.347656 -7.742188 C 8.667969 -8.027344 10.757812 -8.976562 10.757812 -12.144531 C 10.757812 -15.375 6.664062 -15.375 6.664062 -15.375 L 0.328125 -15.375 C 1.121094 -14.453125 1.144531 -13.089844 1.144531 -12.890625 L 1.144531 -2.53125 C 1.144531 -2.332031 1.121094 -0.96875 0.328125 -0.0429688 L 4.90625 -0.0429688 C 4.089844 -1.121094 4.089844 -2.550781 4.089844 -2.550781 L 4.089844 -7.699219 C 4.796875 -6.554688 8.425781 -0.769531 9.328125 -0.21875 C 9.746094 0.0429688 10.425781 0.109375 11.109375 0.109375 C 12.078125 0.109375 13.023438 -0.0429688 13.023438 -0.0429688 C 11.195312 -1.296875 8.160156 -6.355469 7.347656 -7.742188 Z M 5.039062 -8.492188 L 4.089844 -8.492188 L 4.089844 -13.878906 L 5.039062 -13.878906 C 5.039062 -13.878906 7.984375 -13.878906 7.984375 -11.636719 C 7.984375 -8.535156 5.039062 -8.492188 5.039062 -8.492188 Z M 5.039062 -8.492188 "/></g></g></g><g fill="#000000" fill-opacity="1"><g transform="translate(211.590014, 246.631301)"><g><path d="M 6.621094 -9.105469 C 8.140625 -11.109375 9.128906 -12.382812 11.988281 -15.355469 L 7.589844 -15.375 C 7.984375 -14.871094 8.25 -14.296875 8.359375 -13.660156 C 8.359375 -13.484375 8.292969 -13.285156 8.074219 -13.042969 C 5.808594 -10.359375 3.980469 -8.621094 3.847656 -8.492188 L 3.847656 -12.867188 C 3.847656 -12.867188 3.847656 -14.101562 4.664062 -15.375 L 0.328125 -15.375 C 1.121094 -14.453125 1.144531 -13.089844 1.144531 -12.890625 L 1.144531 -2.550781 C 1.144531 -2.332031 1.144531 -0.96875 0.328125 -0.0429688 L 4.664062 -0.0429688 C 3.847656 -1.320312 3.847656 -2.550781 3.847656 -2.550781 L 3.847656 -7.632812 C 4.574219 -6.511719 8.269531 -0.988281 9.546875 -0.375 C 10.230469 -0.0234375 11.066406 0.0664062 11.789062 0.0664062 C 12.648438 0.0664062 13.332031 -0.0664062 13.332031 -0.0664062 C 10.292969 -2.441406 6.621094 -9.105469 6.621094 -9.105469 Z M 6.621094 -9.105469 "/></g></g></g><g fill="#000000" fill-opacity="1"><g transform="translate(104.197812, 126.860624)"><g><path d="M 3.855469 -4.378906 C 2.488281 -5.386719 1.515625 -6.015625 1.515625 -6.359375 C 1.515625 -6.523438 1.710938 -6.601562 2.144531 -6.601562 C 3.523438 -6.601562 4.933594 -5.039062 4.933594 -5.039062 L 5.609375 -6.871094 C 5.609375 -6.871094 5.085938 -7.664062 3.105469 -7.664062 C 1.410156 -7.664062 0.511719 -6.539062 0.511719 -5.804688 C 0.511719 -5.070312 0.703125 -4.273438 2.746094 -2.804688 C 4.109375 -1.875 5.011719 -1.363281 5.011719 -1.003906 C 4.828125 -0.824219 4.621094 -0.734375 4.410156 -0.734375 C 2.460938 -0.75 1.53125 -2.445312 1.53125 -2.445312 L 0.121094 -1.003906 C 0.121094 -1.003906 0.898438 0.226562 2.96875 0.226562 C 5.925781 0.226562 6.164062 -1.289062 6.164062 -1.679688 C 6.164062 -2.699219 5.550781 -3.121094 3.855469 -4.378906 Z M 3.855469 -4.378906 "/></g></g></g><g fill="#000000" fill-opacity="1"><g transform="translate(111.232806, 126.860624)"><g><path d="M 1.546875 -8.324219 L 2.910156 -9.808594 C 2.910156 -9.808594 2.085938 -10.230469 1.574219 -11.191406 L 0.164062 -9.824219 C 0.164062 -9.824219 0.613281 -8.851562 1.546875 -8.324219 Z M 3.089844 0.015625 C 2.535156 -0.871094 2.519531 -1.679688 2.519531 -1.753906 L 2.503906 -7.664062 L 0.195312 -6.613281 C 0.765625 -6.148438 0.765625 -5.28125 0.765625 -5.28125 L 0.765625 -1.710938 C 0.765625 -1.5 0.734375 -0.628906 0.195312 0.015625 Z M 3.089844 0.015625 "/></g></g></g><g fill="#000000" fill-opacity="1"><g transform="translate(115.207798, 126.860624)"><g><path d="M 7.546875 0 C 7.035156 -0.988281 6.988281 -1.558594 6.988281 -1.726562 C 6.988281 -3.089844 6.976562 -4.453125 6.976562 -5.804688 C 6.976562 -7.171875 6.253906 -7.753906 5.21875 -7.753906 C 4.199219 -7.753906 2.789062 -6.613281 2.476562 -6.34375 L 2.476562 -7.753906 C 2.476562 -7.753906 0.210938 -6.734375 0.210938 -6.703125 C 0.765625 -6.195312 0.765625 -5.371094 0.765625 -5.371094 C 0.765625 -4.15625 0.765625 -2.941406 0.765625 -1.726562 C 0.765625 -1.53125 0.734375 -0.644531 0.210938 0 L 3.089844 0 C 2.535156 -0.886719 2.519531 -1.695312 2.519531 -1.769531 L 2.488281 -5.941406 C 2.984375 -6.148438 3.390625 -6.238281 3.734375 -6.238281 C 5.386719 -6.238281 5.386719 -5.054688 5.386719 -5.054688 C 5.386719 -3.976562 5.386719 -2.878906 5.386719 -1.785156 C 5.386719 -1.726562 5.355469 -1.320312 4.828125 0 Z M 7.546875 0 "/></g></g></g><g fill="#000000" fill-opacity="1"><g transform="translate(123.622788, 126.860624)"><g><path d="M 4.710938 -0.886719 C 3.195312 -0.886719 2.640625 -1.636719 2.296875 -2.925781 C 1.980469 -4.109375 1.679688 -5.128906 1.679688 -5.761719 C 1.679688 -6.226562 1.84375 -6.496094 2.25 -6.496094 C 4.050781 -6.496094 4.378906 -4.738281 4.378906 -4.738281 L 5.851562 -6.585938 C 5.851562 -6.585938 5.144531 -7.664062 3.40625 -7.664062 C 1.394531 -7.664062 0.300781 -6.269531 0.300781 -3.75 C 0.300781 -1.214844 1.394531 0.226562 3.375 0.226562 C 4.15625 0.226562 5.265625 -0.0898438 5.984375 -1.050781 C 5.566406 -0.945312 5.175781 -0.886719 4.710938 -0.886719 Z M 4.710938 -0.886719 "/></g></g></g><g fill="#000000" fill-opacity="1"><g transform="translate(130.372777, 126.860624)"><g><path d="M 4.558594 -0.886719 C 3.734375 -0.886719 3.089844 -0.960938 2.519531 -2.175781 C 2.445312 -2.324219 2.460938 -2.414062 2.460938 -2.414062 L 5.820312 -6.570312 C 5.820312 -6.570312 5.160156 -7.664062 3.464844 -7.664062 C 1.261719 -7.664062 0.300781 -6.058594 0.300781 -3.839844 C 0.300781 -1.050781 1.546875 0.210938 3.449219 0.210938 C 5.128906 0.210938 5.820312 -0.886719 5.953125 -1.050781 C 5.503906 -0.960938 5.023438 -0.886719 4.558594 -0.886719 Z M 1.636719 -5.746094 C 1.664062 -6.328125 1.800781 -6.628906 2.324219 -6.601562 C 3.585938 -6.523438 4.378906 -6.164062 3.613281 -4.996094 C 3.359375 -4.605469 2.28125 -2.984375 2.28125 -2.984375 C 2.28125 -3 1.636719 -4.679688 1.636719 -5.746094 Z M 1.636719 -5.746094 "/></g></g></g><g fill="#000000" fill-opacity="1"><g transform="translate(232.548812, 126.860624)"><g><path d="M 6.523438 0.015625 L 5.761719 -1.875 C 5.761719 -1.875 4.828125 -0.945312 4.621094 -0.824219 C 4.484375 -0.75 3.855469 -0.734375 3.433594 -0.734375 C 3.238281 -0.734375 3.089844 -0.734375 3.089844 -0.734375 C 3.089844 -0.734375 5.746094 -4.589844 5.761719 -5.398438 C 5.804688 -6.570312 4.066406 -7.636719 2.941406 -7.636719 C 2.203125 -7.636719 1.53125 -7.636719 0.691406 -6.898438 L 1.46875 -5.039062 C 1.46875 -5.039062 2.070312 -6.613281 3.523438 -6.613281 C 3.734375 -6.613281 3.976562 -6.539062 3.976562 -6.285156 C 3.976562 -5.085938 0.179688 -1.109375 0.179688 0.015625 Z M 6.523438 0.015625 "/></g></g></g><g fill="#000000" fill-opacity="1"><g transform="translate(239.958806, 126.860624)"><g><path d="M 3.71875 -7.695312 C 1.875 -7.695312 0.390625 -6.691406 0.390625 -3.78125 C 0.390625 -0.886719 1.875 0.148438 3.71875 0.148438 C 5.550781 0.148438 7.066406 -0.871094 7.066406 -3.703125 C 7.066406 -5.835938 6.179688 -7.695312 3.71875 -7.695312 Z M 2.339844 -3.554688 C 2.113281 -4.410156 1.859375 -5.371094 1.859375 -5.820312 C 1.859375 -6.253906 2.023438 -6.480469 2.445312 -6.480469 C 3.390625 -6.480469 3.914062 -6.195312 4.261719 -5.761719 L 2.699219 -2.371094 C 2.566406 -2.730469 2.460938 -3.136719 2.339844 -3.554688 Z M 4.90625 -0.945312 C 3.976562 -0.945312 3.433594 -1.214844 3.089844 -1.664062 L 4.664062 -4.980469 C 4.800781 -4.621094 4.890625 -4.230469 5.011719 -3.855469 C 5.234375 -3.148438 5.460938 -2.265625 5.460938 -1.753906 C 5.460938 -1.425781 5.324219 -0.945312 4.90625 -0.945312 Z M 4.90625 -0.945312 "/></g></g></g><g fill="#000000" fill-opacity="1"><g transform="translate(248.118799, 126.860624)"><g><path d="M 6.523438 0.015625 L 5.761719 -1.875 C 5.761719 -1.875 4.828125 -0.945312 4.621094 -0.824219 C 4.484375 -0.75 3.855469 -0.734375 3.433594 -0.734375 C 3.238281 -0.734375 3.089844 -0.734375 3.089844 -0.734375 C 3.089844 -0.734375 5.746094 -4.589844 5.761719 -5.398438 C 5.804688 -6.570312 4.066406 -7.636719 2.941406 -7.636719 C 2.203125 -7.636719 1.53125 -7.636719 0.691406 -6.898438 L 1.46875 -5.039062 C 1.46875 -5.039062 2.070312 -6.613281 3.523438 -6.613281 C 3.734375 -6.613281 3.976562 -6.539062 3.976562 -6.285156 C 3.976562 -5.085938 0.179688 -1.109375 0.179688 0.015625 Z M 6.523438 0.015625 "/></g></g></g><g fill="#000000" fill-opacity="1"><g transform="translate(255.528792, 126.860624)"><g><path d="M 3.015625 -3.78125 C 3.71875 -4.230469 4.816406 -5.21875 4.816406 -5.535156 C 4.816406 -6.691406 3.375 -7.648438 2.308594 -7.648438 C 1.410156 -7.648438 0.691406 -7.453125 0.105469 -6.929688 L 0.886719 -5.054688 C 0.886719 -5.054688 1.484375 -6.613281 2.925781 -6.601562 C 3.253906 -6.601562 3.375 -6.554688 3.375 -6.390625 C 3.375 -5.671875 1.425781 -3.046875 1.273438 -2.851562 L 1.246094 -2.835938 C 1.246094 -2.835938 3.433594 -1.109375 3.433594 -0.210938 C 3.433594 0.703125 0.195312 0.105469 -0.390625 0.015625 C -0.269531 0.824219 1.261719 1.636719 2.308594 1.636719 C 3.433594 1.636719 5.308594 -0.0742188 5.21875 -1.261719 C 5.203125 -1.859375 3.121094 -3.660156 3.015625 -3.78125 Z M 3.015625 -3.78125 "/></g></g></g></svg>